<?xml version="1.0" encoding="iso-8859-1"?>
<!-- Uploaded to: SVG Repo, www.svgrepo.com, Generator: SVG Repo Mixer Tools -->
<svg fill="#ffffff" height="800px" width="800px" version="1.1" id="Layer_1" xmlns="http://www.w3.org/2000/svg" xmlns:xlink="http://www.w3.org/1999/xlink" 
	 viewBox="0 0 512 512" xml:space="preserve">
<g>
	<g>
		<circle cx="98.043" cy="462.979" r="8.17"/>
	</g>
</g>
<g>
	<g>
		<circle cx="130.723" cy="430.298" r="8.17"/>
	</g>
</g>
<g>
	<g>
		<circle cx="381.277" cy="299.574" r="8.17"/>
	</g>
</g>
<g>
	<g>
		<path d="M465.702,130.723h-62.79c16.688-13.491,27.385-34.111,27.385-57.191C430.298,32.986,397.312,0,356.766,0
			c-22.725,0-43.821,10.278-57.873,28.196l-30.642,39.045c-3.869-1.219-7.984-1.879-12.251-1.879c-4.267,0-8.382,0.66-12.251,1.879
			l-30.64-39.043C199.054,10.278,177.959,0,155.234,0c-40.546,0-73.532,32.986-73.532,73.532c0,23.08,10.698,43.701,27.385,57.191
			h-62.79c-4.512,0-8.17,3.658-8.17,8.17v87.149c0,4.512,3.658,8.17,8.17,8.17h168.851V495.66H65.362V258.723
			c0-4.512-3.658-8.17-8.17-8.17c-4.512,0-8.17,3.658-8.17,8.17V503.83c0,4.512,3.658,8.17,8.17,8.17h397.617
			c4.513,0,8.17-3.658,8.17-8.17V234.213h2.723c4.513,0,8.17-3.658,8.17-8.17v-87.149
			C473.872,134.381,470.215,130.723,465.702,130.723z M98.043,73.532c0-31.536,25.656-57.191,57.192-57.191
			c17.673,0,34.081,7.997,45.019,21.944l29.064,37.035c-4.277,3.698-7.784,8.263-10.236,13.424l-31.688-40.377
			c-7.818-9.969-19.54-15.686-32.159-15.686c-22.526,0-40.851,18.325-40.851,40.851s18.325,40.851,40.851,40.851h67.193
			c0.15,0,0.297-0.014,0.446-0.023c0.148,0.008,0.295,0.023,0.446,0.023c4.512,0,8.17-3.658,8.17-8.17
			c0-13.516,10.995-24.511,24.511-24.511c13.515,0,24.511,10.995,24.511,24.511v24.511H155.233
			C123.698,130.723,98.043,105.068,98.043,73.532z M205.607,98.043h-50.373c-13.516,0-24.511-10.995-24.511-24.511
			s10.995-24.511,24.511-24.511c7.567,0,14.602,3.437,19.302,9.431L205.607,98.043z M215.149,217.872H54.468v-70.809h160.681
			V217.872z M280.511,495.66h-49.021V147.064h49.021V495.66z M282.683,75.318l29.066-37.036
			c10.936-13.945,27.344-21.942,45.017-21.942c31.535,0,57.191,25.656,57.191,57.191s-25.657,57.191-57.191,57.191h-59.915v-16.34
			h59.915c22.526,0,40.851-18.325,40.851-40.851s-18.325-40.851-40.851-40.851c-12.619,0-24.344,5.72-32.165,15.692l-31.683,40.37
			C290.466,83.581,286.96,79.018,282.683,75.318z M306.393,98.043l31.065-39.583c4.704-5.998,11.742-9.438,19.308-9.438
			c13.515,0,24.511,10.995,24.511,24.511s-10.996,24.511-24.511,24.511H306.393z M446.638,495.66H296.851V234.213h149.787V495.66z
			 M457.532,217.872H296.851v-70.809h160.681V217.872z"/>
	</g>
</g>
</svg>