<?xml version="1.0" encoding="utf-8"?>
<!-- Uploaded to: SVG Repo, www.svgrepo.com, Generator: SVG Repo Mixer Tools -->
<svg width="800px" height="800px" viewBox="0 0 1024 1024" fill="#ffffff" class="icon"  version="1.1" xmlns="http://www.w3.org/2000/svg"><path d="M477.39 128.162a7.994 7.994 0 0 1-7.896-9.284l5.974-36.524-25.168-25.796a7.992 7.992 0 0 1 4.514-13.488l34.454-5.264 15.494-32.994a7.994 7.994 0 0 1 7.24-4.6c3.102 0 5.92 1.796 7.24 4.6l15.47 32.994 34.468 5.264a8.032 8.032 0 0 1 6.388 5.366 8.03 8.03 0 0 1-1.876 8.122l-25.16 25.794 5.95 36.532a8.01 8.01 0 0 1-3.294 7.816 8.012 8.012 0 0 1-8.48 0.46L512 110.178l-30.746 16.984c-1.202 0.672-2.536 1-3.864 1z m-4.772-71.634l17.118 17.548a8.004 8.004 0 0 1 2.172 6.872l-3.966 24.256 20.194-11.16a8.02 8.02 0 0 1 7.742 0l20.178 11.16-3.966-24.264a7.974 7.974 0 0 1 2.188-6.864l17.118-17.54-23.302-3.56a7.994 7.994 0 0 1-6.038-4.506L512 27.032l-10.066 21.436a7.988 7.988 0 0 1-6.03 4.506l-23.286 3.554zM288.086 559.98a7.996 7.996 0 0 1-7.148-11.574l199.916-399.832a7.996 7.996 0 1 1 14.306 7.152L295.248 555.56a8.014 8.014 0 0 1-7.162 4.42zM735.906 559.98a7.996 7.996 0 0 1-7.152-4.42L528.838 155.728a7.996 7.996 0 1 1 14.306-7.152l199.916 399.832a8 8 0 0 1-7.154 11.572z" fill="" /><path d="M735.906 559.98H288.094a7.992 7.992 0 0 1-7.998-7.996 7.992 7.992 0 0 1 7.998-7.996h447.812a7.992 7.992 0 0 1 7.998 7.996 7.992 7.992 0 0 1-7.998 7.996zM208.128 879.846a7.688 7.688 0 0 1-3.078-0.624 7.98 7.98 0 0 1-4.302-10.448l119.95-287.878a8.012 8.012 0 0 1 10.456-4.296 7.98 7.98 0 0 1 4.302 10.45l-119.95 287.878a7.98 7.98 0 0 1-7.378 4.918z" fill="" /><path d="M815.874 879.846H208.128c-4.42 0-7.998-3.576-7.998-7.996s3.578-7.998 7.998-7.998h607.746c4.42 0 7.996 3.578 7.996 7.998s-3.578 7.996-7.996 7.996z" fill="" /><path d="M815.874 879.846a7.98 7.98 0 0 1-7.372-4.92l-119.95-287.878a7.964 7.964 0 0 1 4.294-10.45c4.076-1.686 8.762 0.218 10.448 4.296l119.95 287.878a7.96 7.96 0 0 1-4.292 10.448 7.692 7.692 0 0 1-3.078 0.626zM456.024 1023.786a7.992 7.992 0 0 1-7.998-7.996v-111.954c0-4.42 3.578-7.996 7.998-7.996s7.998 3.576 7.998 7.996v111.954a7.996 7.996 0 0 1-7.998 7.996zM567.978 1023.786a7.992 7.992 0 0 1-7.998-7.996v-111.954a7.992 7.992 0 0 1 7.998-7.996 7.992 7.992 0 0 1 7.996 7.996v111.954a7.994 7.994 0 0 1-7.996 7.996z" fill="" /><path d="M567.978 1023.786h-111.956c-4.42 0-7.998-3.576-7.998-7.996s3.578-7.996 7.998-7.996h111.956c4.418 0 7.996 3.576 7.996 7.996s-3.578 7.996-7.996 7.996z" fill="" /><path d="M488.01 1023.786a7.992 7.992 0 0 1-7.998-7.996v-63.972c0-4.42 3.578-7.996 7.998-7.996s7.996 3.576 7.996 7.996v63.972a7.992 7.992 0 0 1-7.996 7.996zM567.978 975.804c-18.446 0-39.984-6.278-39.984-23.988v-47.98a7.99 7.99 0 0 1 7.996-7.996 7.992 7.992 0 0 1 7.998 7.996v47.98c0 4.81 14.432 7.996 23.99 7.996 4.418 0 7.996 3.576 7.996 7.996s-3.578 7.996-7.996 7.996zM430.87 384.102c-2.296 0-4.6-0.016-6.942-0.046a8 8 0 0 1 0.11-15.994h0.11c103.036 1.274 155.044-30.424 155.544-30.752 3.732-2.32 8.684-1.226 11.026 2.498a7.97 7.97 0 0 1-2.466 11.012c-2.188 1.388-53.62 33.282-157.382 33.282zM475.422 272.124a260.6 260.6 0 0 1-3.514-0.024 7.996 7.996 0 0 1 0.11-15.994c0.984-0.016 2.258 0.024 3.366 0.024 48.286 0 72.072-14.61 72.306-14.766 3.748-2.334 8.668-1.234 11.012 2.46a7.97 7.97 0 0 1-2.39 11.01c-1.11 0.72-27.474 17.29-80.89 17.29zM313.02 815.998c-5.622 0-11.292-0.046-17.04-0.124a7.996 7.996 0 0 1-7.886-8.106 7.994 7.994 0 0 1 7.996-7.888h0.11c261 3.906 394.164-77.92 395.476-78.748a8.024 8.024 0 0 1 11.026 2.532 8.008 8.008 0 0 1-2.53 11.026c-5.436 3.388-133.162 81.308-387.152 81.308zM356.37 688.02c-4.092 0-8.222-0.032-12.408-0.094a7.998 7.998 0 0 1 0.11-15.992h0.108c197.95 2.888 295.298-59.974 299.36-62.646a7.964 7.964 0 0 1 11.074 2.282 8.004 8.004 0 0 1-2.282 11.072c-4.138 2.718-101.55 65.378-295.962 65.378zM401.024 496.07c-3.006 0-6.012-0.024-9.084-0.062a7.996 7.996 0 0 1-7.886-8.106c0.062-4.404 3.046-8.248 8.106-7.888 145.988 1.758 218.596-46.122 219.316-46.606a7.98 7.98 0 0 1 11.106 2.14 7.992 7.992 0 0 1-2.14 11.104c-3.032 2.056-74.644 49.418-219.418 49.418zM512 175.142a7.994 7.994 0 0 1-7.998-7.998V101.042c0-4.42 3.578-7.998 7.998-7.998s7.998 3.576 7.998 7.998v66.104A7.992 7.992 0 0 1 512 175.142z" fill="" /><path d="M488.01 271.796a7.992 7.992 0 0 1-7.998-7.996v-7.694c0-4.42 3.578-7.996 7.998-7.996s7.996 3.576 7.996 7.996v7.694a7.99 7.99 0 0 1-7.996 7.996zM535.99 279.792a7.99 7.99 0 0 1-7.996-7.996v-16.634a7.992 7.992 0 0 1 7.996-7.998 7.994 7.994 0 0 1 7.998 7.998v16.634a7.992 7.992 0 0 1-7.998 7.996zM440.03 384.016a7.992 7.992 0 0 1-7.996-7.998v-15.93c0-4.42 3.576-7.996 7.996-7.996s7.996 3.576 7.996 7.996v15.93a7.992 7.992 0 0 1-7.996 7.998zM504.002 392.098a7.99 7.99 0 0 1-7.996-7.996v-13.978c0-4.42 3.576-7.998 7.996-7.998s7.998 3.578 7.998 7.998v13.978a7.992 7.992 0 0 1-7.998 7.996zM567.978 359.994a7.992 7.992 0 0 1-7.998-7.996v-15.924a7.992 7.992 0 0 1 7.998-7.996 7.992 7.992 0 0 1 7.996 7.996v15.924a7.992 7.992 0 0 1-7.996 7.996zM424.038 495.648a7.994 7.994 0 0 1-7.998-7.998v-7.638c0-4.42 3.578-7.996 7.998-7.996s7.998 3.576 7.998 7.996v7.638a7.994 7.994 0 0 1-7.998 7.998zM519.998 479.92a7.992 7.992 0 0 1-7.998-7.996v-7.904c0-4.42 3.578-7.998 7.998-7.998s7.996 3.578 7.996 7.998v7.904a7.99 7.99 0 0 1-7.996 7.996zM472.016 504.004a7.99 7.99 0 0 1-7.996-7.996v-12.09c0-4.42 3.576-7.996 7.996-7.996s7.998 3.576 7.998 7.996v12.09a7.992 7.992 0 0 1-7.998 7.996zM583.97 480.014a7.99 7.99 0 0 1-7.996-7.996v-15.978c0-4.42 3.576-7.996 7.996-7.996s7.996 3.576 7.996 7.996v15.978a7.99 7.99 0 0 1-7.996 7.996zM615.958 527.994c-13.228 0-23.99-10.762-23.99-23.99s10.762-23.99 23.99-23.99 23.99 10.762 23.99 23.99-10.762 23.99-23.99 23.99z m0-31.986c-4.404 0-7.996 3.584-7.996 7.996s3.592 7.996 7.996 7.996 7.998-3.584 7.998-7.996-3.594-7.996-7.998-7.996z" fill="" /><path d="M615.958 496.008a7.992 7.992 0 0 1-7.996-7.998v-8.09c0-4.42 3.576-7.996 7.996-7.996s7.998 3.576 7.998 7.996v8.09c0 4.42-3.58 7.998-7.998 7.998zM695.924 831.96c-13.228 0-23.99-10.762-23.99-23.992 0-13.226 10.762-23.988 23.99-23.988s23.99 10.762 23.99 23.988c0 13.232-10.762 23.992-23.99 23.992z m0-31.988a8.012 8.012 0 0 0-7.996 7.996c0 4.406 3.592 7.998 7.996 7.998s7.996-3.592 7.996-7.998a8.012 8.012 0 0 0-7.996-7.996z" fill="" /><path d="M695.924 799.972a7.99 7.99 0 0 1-7.996-7.996v-8.09c0-4.42 3.576-7.996 7.996-7.996s7.996 3.576 7.996 7.996v8.09a7.99 7.99 0 0 1-7.996 7.996zM392.05 767.892c-13.228 0-23.99-10.76-23.99-23.99 0-13.228 10.76-23.988 23.99-23.988 13.23 0 23.99 10.76 23.99 23.988 0 13.23-10.76 23.99-23.99 23.99z m0-31.986a8.006 8.006 0 0 0-7.996 7.996c0 4.406 3.584 7.998 7.996 7.998s7.998-3.592 7.998-7.998a8.01 8.01 0 0 0-7.998-7.996z" fill="" /><path d="M392.05 735.906a7.99 7.99 0 0 1-7.996-7.996v-8.09c0-4.422 3.576-7.998 7.996-7.998s7.998 3.576 7.998 7.998v8.09a7.994 7.994 0 0 1-7.998 7.996zM551.984 751.994c-13.228 0-23.99-10.762-23.99-23.99s10.762-23.99 23.99-23.99 23.99 10.762 23.99 23.99-10.762 23.99-23.99 23.99z m0-31.986c-4.404 0-7.996 3.592-7.996 7.996S547.58 736 551.984 736s7.996-3.592 7.996-7.996-3.592-7.996-7.996-7.996z" fill="" /><path d="M551.984 720.008a7.992 7.992 0 0 1-7.996-7.998v-8.09c0-4.42 3.576-7.996 7.996-7.996s7.996 3.576 7.996 7.996v8.09a7.992 7.992 0 0 1-7.996 7.998zM456.024 639.948c-13.228 0-23.99-10.762-23.99-23.99s10.76-23.99 23.99-23.99c13.23 0 23.99 10.762 23.99 23.99s-10.762 23.99-23.99 23.99z m0-31.988c-4.412 0-7.998 3.592-7.998 7.996s3.584 7.996 7.998 7.996 7.998-3.592 7.998-7.996-3.586-7.996-7.998-7.996z" fill="" /><path d="M456.024 607.96a7.994 7.994 0 0 1-7.998-7.998v-8.09c0-4.42 3.578-7.996 7.998-7.996s7.998 3.576 7.998 7.996v8.09a7.996 7.996 0 0 1-7.998 7.998zM408.044 464.02c-13.228 0-23.99-10.76-23.99-23.99 0-13.23 10.762-23.99 23.99-23.99s23.99 10.76 23.99 23.99c0 13.23-10.762 23.99-23.99 23.99z m0-31.986c-4.412 0-7.998 3.584-7.998 7.998s3.584 7.996 7.998 7.996 7.996-3.584 7.996-7.996-3.584-7.998-7.996-7.998z" fill="" /><path d="M408.044 432.034a7.994 7.994 0 0 1-7.998-7.998v-8.09c0-4.42 3.578-7.996 7.998-7.996s7.996 3.576 7.996 7.996v8.09a7.992 7.992 0 0 1-7.996 7.998zM504.002 336.074c-13.228 0-23.99-10.76-23.99-23.99 0-13.228 10.76-23.99 23.99-23.99 13.23 0 23.992 10.76 23.992 23.99 0 13.23-10.762 23.99-23.992 23.99z m0-31.986a8 8 0 0 0-7.996 7.996c0 4.412 3.584 7.998 7.996 7.998s7.998-3.584 7.998-7.998a8 8 0 0 0-7.998-7.996z" fill="" /><path d="M504.002 304.088a7.99 7.99 0 0 1-7.996-7.996V288a7.996 7.996 0 1 1 15.994 0v8.09a7.994 7.994 0 0 1-7.998 7.998zM376.058 687.786a7.992 7.992 0 0 1-7.998-7.996v-7.856c0-4.42 3.578-7.996 7.998-7.996s7.996 3.576 7.996 7.996v7.856a7.992 7.992 0 0 1-7.996 7.996zM456.024 695.924a7.994 7.994 0 0 1-7.998-7.998v-13.836c0-4.422 3.578-7.998 7.998-7.998s7.998 3.576 7.998 7.998v13.836a7.994 7.994 0 0 1-7.998 7.998zM535.99 667.374a7.992 7.992 0 0 1-7.996-7.998v-11.384a7.99 7.99 0 0 1 7.996-7.996 7.992 7.992 0 0 1 7.998 7.996v11.384a7.994 7.994 0 0 1-7.998 7.998zM615.958 655.986a7.99 7.99 0 0 1-7.996-7.996v-15.494c0-4.42 3.576-7.996 7.996-7.996s7.998 3.576 7.998 7.996v15.494c0 4.42-3.58 7.996-7.998 7.996z" fill="" /><path d="M328.288 815.874a8 8 0 0 1-7.988-7.78l-0.218-7.996a8.014 8.014 0 0 1 7.778-8.214c4.28-0.124 8.09 3.358 8.214 7.778l0.218 7.998a8.014 8.014 0 0 1-7.778 8.214h-0.226z" fill="" /><path d="M408.044 823.87a7.992 7.992 0 0 1-7.998-7.996v-11.776c0-4.422 3.578-7.998 7.998-7.998s7.996 3.576 7.996 7.998v11.776a7.992 7.992 0 0 1-7.996 7.996z" fill="" /><path d="M488.01 802.222a7.994 7.994 0 0 1-7.998-7.996v-10.34c0-4.42 3.578-7.996 7.998-7.996s7.996 3.576 7.996 7.996v10.34a7.992 7.992 0 0 1-7.996 7.996z" fill="" /><path d="M583.97 791.882a7.99 7.99 0 0 1-7.996-7.996v-11.136c0-4.42 3.576-7.996 7.996-7.996s7.996 3.576 7.996 7.996v11.136a7.99 7.99 0 0 1-7.996 7.996z" fill="" /><path d="M647.944 758.85a7.99 7.99 0 0 1-7.996-7.996v-14.948c0-4.42 3.576-7.996 7.996-7.996s7.996 3.576 7.996 7.996v14.948a7.99 7.99 0 0 1-7.996 7.996z" fill="" /><path d="M408.262 1023.786h-127.948a7.99 7.99 0 0 1-7.996-7.996v-63.972a7.99 7.99 0 0 1 7.996-7.996h127.948a7.99 7.99 0 0 1 7.996 7.996v63.972a7.992 7.992 0 0 1-7.996 7.996z m-119.948-15.994h111.952v-47.98h-111.952v47.98z" fill="" /><path d="M344.29 1023.786a7.992 7.992 0 0 1-7.998-7.996v-63.972a7.992 7.992 0 0 1 7.998-7.996 7.992 7.992 0 0 1 7.998 7.996v63.972a7.996 7.996 0 0 1-7.998 7.996z" fill="" /><path d="M312.302 959.812a7.972 7.972 0 0 1-5.654-2.344c-4.982-4.98-20.82-22.24-15.416-35.296 2.842-6.856 9.934-10.34 21.07-10.34 31.628 0 39.984 26.146 39.984 39.984a7.992 7.992 0 0 1-7.998 7.996 7.992 7.992 0 0 1-7.998-7.996c-0.046-3.968-1.414-23.99-23.99-23.99-5.256 0-6.676 1.03-6.684 1.03 0.14 2 6.012 10.98 12.338 17.306a7.992 7.992 0 0 1 0 11.306 7.956 7.956 0 0 1-5.652 2.344z" fill="" /><path d="M376.44 959.812a7.972 7.972 0 0 1-5.654-2.344 8 8 0 0 1-0.016-11.306c6.114-6.124 11.814-14.728 11.892-17.82-0.358 0.046-2.084-0.516-6.23-0.516-22.578 0-23.944 20.022-23.99 24.038-0.054 4.388-3.57 7.262-8.044 7.918a7.96 7.96 0 0 1-7.95-7.964c0-13.838 8.356-39.984 39.984-39.984 11.134 0 18.226 3.484 21.068 10.34 5.404 13.056-10.432 30.316-15.416 35.296a7.958 7.958 0 0 1-5.644 2.342z" fill="" /><path d="M647.944 943.82a7.968 7.968 0 0 1-5.652-2.344c-4.984-4.982-20.82-22.24-15.416-35.296 2.842-6.858 9.934-10.34 21.068-10.34 31.628 0 39.984 26.144 39.984 39.982a7.994 7.994 0 0 1-7.996 7.998 7.994 7.994 0 0 1-7.998-7.998c-0.046-3.966-1.404-23.99-23.99-23.99-5.246 0-6.684 1.032-6.684 1.032 0.14 2 6.012 10.98 12.338 17.304a7.994 7.994 0 0 1 0 11.308 7.96 7.96 0 0 1-5.654 2.344z" fill="" /><path d="M712.072 943.82a7.994 7.994 0 0 1-5.652-13.652c6.106-6.122 11.806-14.726 11.884-17.82-0.39 0.078-2.076-0.516-6.232-0.516-22.584 0-23.942 20.024-23.988 24.038a8.008 8.008 0 0 1-7.998 7.92h-0.044a7.968 7.968 0 0 1-7.952-7.966c0-13.838 8.356-39.982 39.982-39.982 11.136 0 18.226 3.482 21.07 10.34 5.404 13.056-10.434 30.314-15.416 35.296a7.964 7.964 0 0 1-5.654 2.342z" fill="" /><path d="M727.91 1023.786h-95.958a7.99 7.99 0 0 1-7.996-7.996v-79.966a7.99 7.99 0 0 1 7.996-7.996h95.958a7.99 7.99 0 0 1 7.996 7.996v79.966a7.992 7.992 0 0 1-7.996 7.996z m-87.962-15.994h79.966V943.82h-79.966v63.972z" fill="" /><path d="M680.01 1023.786a7.992 7.992 0 0 1-7.998-7.996v-79.966a7.992 7.992 0 0 1 7.998-7.996 7.992 7.992 0 0 1 7.996 7.996v79.966a7.994 7.994 0 0 1-7.996 7.996z" fill="" /></svg>